<svg width="28" height="27" xmlns="http://www.w3.org/2000/svg" xmlns:xlink="http://www.w3.org/1999/xlink" xml:space="preserve" overflow="hidden"><g transform="translate(-300 -1101)"><path d="M14.491 17.5417C10.7087 16.5347 6.82622 18.7844 5.8192 22.5667 4.81214 26.3489 7.06191 30.2314 10.8441 31.2385 14.6264 32.2455 18.5089 29.9958 19.5159 26.2135 19.5159 26.2134 19.5159 26.2133 19.516 26.2133 20.5228 22.4311 18.2731 18.5488 14.491 17.5417ZM12.5229 27.9484 11.0121 29.5396 9.50087 27.9484 7.51928 27.0034 8.56712 25.0742 8.85315 22.8974 11.0121 23.2979 13.1707 22.8974 13.4571 25.0742 14.5049 27.0034Z" fill="#3333CC" transform="matrix(1.00464 0 0 1 294.741 1095.39)"/><path d="M12.9758 25.8519C12.9758 26.9365 12.0966 27.8157 11.0121 27.8157 9.92756 27.8157 9.04836 26.9365 9.04836 25.8519 9.04836 24.7674 9.92756 23.8882 11.0121 23.8882 12.0966 23.8882 12.9758 24.7674 12.9758 25.8519Z" fill="#3333CC" transform="matrix(1.00464 0 0 1 294.741 1095.39)"/><path d="M17.6229 7.32639C14.5429 4.91433 10.0907 5.45579 7.67863 8.53576 5.65558 11.119 5.67138 14.7535 7.71681 17.319 9.79993 15.8494 12.4282 15.3812 14.8907 16.041 15.4768 16.1984 16.045 16.4166 16.5859 16.6918 17.1906 14.9324 18.3519 13.4178 19.894 12.377 20.0255 12.2878 20.1614 12.2066 20.2968 12.1251 20.0895 10.2303 19.1252 8.49963 17.6229 7.32639ZM14.4044 10.7028 14.5744 12.821 12.45 12.8796 10.4878 13.6946 9.77603 11.6932 8.39326 10.0795 10.0776 8.78368 11.1852 6.96974 12.9382 8.17282 15.0056 8.66609Z" fill="#3333CC" transform="matrix(1.00464 0 0 1 294.741 1095.39)"/><path d="M13.8362 10.4311C13.8362 11.4807 12.9854 12.3316 11.9358 12.3316 10.8861 12.3316 10.0353 11.4807 10.0353 10.4311 10.0353 9.38152 10.8861 8.53064 11.9358 8.53064 12.9854 8.53064 13.8362 9.38152 13.8362 10.4311Z" fill="#3333CC" transform="matrix(1.00464 0 0 1 294.741 1095.39)"/><path d="M30.6053 15.5601C28.4123 12.3185 24.0066 11.4683 20.7649 13.6613 19.3996 14.5849 18.399 15.9556 17.9353 17.5375 20.4215 19.4536 21.6741 22.5666 21.208 25.6707 24.5976 27.6228 28.9278 26.4575 30.8798 23.068 32.2326 20.719 32.126 17.804 30.6053 15.5601ZM28.1813 19.5598 27.4711 21.5713 25.4999 20.7563 23.3678 20.7027 23.5335 18.5764 22.9257 16.5327 24.9993 16.0332 26.7558 14.8235 27.8716 16.6414 29.5652 17.938Z" fill="#3333CC" transform="matrix(1.00464 0 0 1 294.741 1095.39)"/><path d="M27.9368 18.3016C27.9368 19.3551 27.0828 20.2091 26.0293 20.2091 24.9758 20.2091 24.1218 19.3551 24.1218 18.3016 24.1218 17.2482 24.9758 16.3942 26.0293 16.3942 27.0828 16.3942 27.9368 17.2482 27.9368 18.3016Z" fill="#3333CC" transform="matrix(1.00464 0 0 1 294.741 1095.39)"/></g></svg>