<svg width="49" height="48" xmlns="http://www.w3.org/2000/svg" xmlns:xlink="http://www.w3.org/1999/xlink" xml:space="preserve" overflow="hidden"><defs><clipPath id="clip0"><rect x="2513" y="877" width="49" height="48"/></clipPath></defs><g clip-path="url(#clip0)" transform="translate(-2513 -877)"><path d="M2558.5 901C2558.5 912.322 2549.1 921.5 2537.5 921.5 2525.9 921.5 2516.5 912.322 2516.5 901 2516.5 889.678 2525.9 880.5 2537.5 880.5L2537.5 901Z" fill="#FFFFFF" fill-rule="evenodd"/><path d="M2562.31 897.562 2561.46 905.836 2560.02 910.349 2557.76 914.425 2554.76 917.966 2551.14 920.882 2546.99 923.082 2542.41 924.471 2537.5 924.954 2532.59 924.471 2528.01 923.082 2523.86 920.882 2520.24 917.966 2517.24 914.425 2514.98 910.349 2513.54 905.836 2513.04 901 2513.54 896.164 2514.98 891.651 2517.24 887.575 2520.24 884.034 2523.86 881.117 2528.01 878.918 2532.59 877.528 2540.94 876.707 2540.94 897.562ZM2538.65 899.854 2538.65 879.236 2533.04 879.787 2528.89 881.046 2525.13 883.04 2521.85 885.681 2519.14 888.884 2517.09 892.564 2515.8 896.633 2515.35 901 2515.8 905.366 2517.09 909.436 2519.14 913.116 2521.85 916.319 2525.13 918.96 2528.89 920.953 2533.04 922.213 2537.5 922.651 2541.96 922.213 2546.11 920.953 2549.87 918.96 2553.15 916.319 2555.86 913.116 2557.91 909.436 2559.2 905.366 2559.77 899.854ZM2557.23 902.146 2556.95 904.896 2555.79 908.523 2553.97 911.807 2551.54 914.672 2548.61 917.038 2545.24 918.824 2541.51 919.954 2537.5 920.348 2533.49 919.954 2529.76 918.824 2526.39 917.038 2523.46 914.672 2521.03 911.807 2519.21 908.523 2518.05 904.896 2517.65 901 2518.05 897.103 2519.21 893.477 2521.03 890.192 2523.46 887.328 2526.39 884.962 2529.76 883.175 2533.49 882.046 2536.35 881.764 2536.35 902.146ZM2534.06 904.437 2534.06 884.292 2533.94 884.304 2530.64 885.304 2527.66 886.884 2525.06 888.975 2522.93 891.501 2521.32 894.39 2520.31 897.573 2519.96 901 2520.31 904.426 2521.32 907.61 2522.93 910.498 2525.06 913.025 2527.66 915.115 2530.64 916.695 2533.94 917.695 2537.5 918.046 2541.06 917.695 2544.36 916.695 2547.34 915.115 2549.94 913.025 2552.07 910.498 2553.68 907.61 2554.69 904.426 2554.69 904.437Z"/></g></svg>