<svg width="89" height="90" xmlns="http://www.w3.org/2000/svg" xmlns:xlink="http://www.w3.org/1999/xlink" xml:space="preserve" overflow="hidden"><defs><clipPath id="clip0"><rect x="1095" y="3294" width="89" height="90"/></clipPath></defs><g clip-path="url(#clip0)" transform="translate(-1095 -3294)"><path d="M1180.5 3339C1180.5 3361.92 1162.14 3380.5 1139.5 3380.5 1116.86 3380.5 1098.5 3361.92 1098.5 3339 1098.5 3316.08 1116.86 3297.5 1139.5 3297.5L1139.5 3339Z" fill="#FFFFFF" fill-rule="evenodd"/><path d="M1184.11 3335.56 1183.71 3343.59 1183.04 3348.04 1181.95 3352.35 1180.43 3356.56 1176.37 3364.12 1170.95 3370.77 1164.37 3376.26 1156.89 3380.37 1152.72 3381.92 1148.46 3383.03 1144.04 3383.71 1139.5 3383.94 1134.96 3383.71 1130.54 3383.03 1126.28 3381.92 1122.11 3380.37 1114.63 3376.26 1108.05 3370.77 1102.63 3364.12 1098.57 3356.56 1097.05 3352.35 1095.96 3348.04 1095.29 3343.59 1095.06 3339 1095.29 3334.41 1095.96 3329.96 1097.05 3325.65 1098.57 3321.44 1102.63 3313.88 1108.05 3307.23 1114.63 3301.74 1122.11 3297.63 1126.28 3296.08 1130.54 3294.97 1134.96 3294.29 1142.94 3293.88 1142.94 3335.56ZM1140.65 3337.85 1140.65 3296.29 1135.19 3296.57 1131 3297.22 1126.96 3298.27 1123.06 3299.72 1115.93 3303.64 1109.69 3308.85 1104.54 3315.16 1100.67 3322.38 1099.25 3326.32 1098.21 3330.41 1097.57 3334.64 1097.35 3339 1097.57 3343.36 1098.21 3347.59 1099.25 3351.68 1100.67 3355.62 1104.54 3362.84 1109.69 3369.15 1115.93 3374.36 1123.06 3378.28 1126.96 3379.73 1131 3380.78 1135.19 3381.43 1139.5 3381.65 1143.81 3381.43 1148 3380.78 1152.04 3379.73 1155.94 3378.28 1163.07 3374.36 1169.31 3369.15 1174.46 3362.84 1178.33 3355.62 1179.75 3351.68 1180.79 3347.59 1181.43 3343.36 1181.7 3337.85ZM1179.3 3340.15 1179.15 3343.13 1178.54 3347.14 1177.56 3351 1176.23 3354.69 1172.54 3361.56 1167.67 3367.54 1161.77 3372.46 1154.98 3376.19 1151.35 3377.54 1147.53 3378.53 1143.57 3379.14 1139.5 3379.35 1135.43 3379.14 1131.47 3378.53 1127.65 3377.54 1124.02 3376.19 1117.23 3372.46 1111.33 3367.54 1106.46 3361.56 1102.77 3354.69 1101.44 3351 1100.46 3347.14 1099.85 3343.13 1099.65 3339 1099.85 3334.87 1100.46 3330.86 1101.44 3327 1102.77 3323.31 1106.46 3316.44 1111.33 3310.46 1117.23 3305.54 1124.02 3301.81 1127.65 3300.46 1131.47 3299.47 1135.43 3298.86 1138.35 3298.71 1138.35 3340.15ZM1136.06 3342.44 1136.06 3301.12 1135.66 3301.14 1131.93 3301.71 1128.34 3302.65 1124.97 3303.9 1118.52 3307.44 1112.96 3312.08 1108.38 3317.71 1104.87 3324.25 1103.63 3327.67 1102.71 3331.32 1102.14 3335.1 1101.94 3339 1102.14 3342.9 1102.71 3346.68 1103.63 3350.33 1104.87 3353.75 1108.38 3360.29 1112.96 3365.92 1118.52 3370.56 1124.97 3374.1 1128.34 3375.35 1131.93 3376.29 1135.66 3376.86 1139.5 3377.06 1143.34 3376.86 1147.07 3376.29 1150.66 3375.35 1154.03 3374.1 1160.48 3370.56 1166.04 3365.92 1170.62 3360.29 1174.13 3353.75 1175.37 3350.33 1176.29 3346.68 1176.86 3342.9 1176.89 3342.44Z"/></g></svg>