<svg width="34" height="24" xmlns="http://www.w3.org/2000/svg" xmlns:xlink="http://www.w3.org/1999/xlink" xml:space="preserve" overflow="hidden"><g transform="translate(-128 -1320)"><g><g><path d="M24.9147 14.8841C24.5587 14.8841 24.2675 14.5929 24.2675 14.2369 24.2675 13.881 24.5587 13.5898 24.9147 13.5898 25.2706 13.5898 25.5618 13.881 25.5618 14.2369 25.5618 14.5929 25.2706 14.8841 24.9147 14.8841ZM19.414 11.0013C18.6375 11.0013 17.7962 11.066 16.9549 11.1954L12.2955 8.73631C12.2955 8.73631 12.3279 10.613 13.0074 12.0367 10.2247 12.7485 7.60382 13.5898 5.8242 13.5898L1.29427 11.0013C1.29427 12.7809 2.26497 15.5312 2.26497 15.5312 2.26497 15.5312 1.29427 18.2815 1.29427 20.0611L5.8242 17.4726C7.60382 17.4726 10.2247 18.3139 13.0074 19.0257 12.3279 20.4494 12.2955 22.3261 12.2955 22.3261L16.9549 19.867C17.7962 19.9964 18.6375 20.0611 19.414 20.0611 23.5233 20.0611 29.7682 16.9873 29.7682 15.5312 29.7682 14.0752 23.5233 11.0013 19.414 11.0013Z" fill="#CC0099" transform="matrix(1 0 0 1.58081 129.079 1306.88)"/></g></g></g></svg>